<svg xmlns="http://www.w3.org/2000/svg" width="540" height="960" viewBox="0 0 540 960" role="img" aria-labelledby="title desc">
  <title id="title">Админы. Вариант 2. Роли и шаблоны</title>
  <desc id="desc">Макет раздела администраторов с ролями-шаблонами и индивидуальными исключениями прав.</desc>
  <rect width="540" height="960" rx="34" fill="#f3f8f6"/>
  <g font-family="Inter, Arial, sans-serif" fill="#132235">
    <rect x="22" y="24" width="496" height="116" rx="24" fill="#ffffff" stroke="#cfe0dc"/>
    <text x="46" y="70" font-size="30" font-weight="900">Админы</text>
    <text x="46" y="102" font-size="16" font-weight="700" fill="#65766f">Роль задаёт права, исключения меняются вручную.</text>
    <rect x="358" y="52" width="136" height="48" rx="18" fill="#258f70"/>
    <text x="389" y="82" font-size="16" font-weight="900" fill="#ffffff">Новый</text>

    <text x="30" y="178" font-size="18" font-weight="900">Шаблоны ролей</text>
    <rect x="30" y="198" width="480" height="144" rx="24" fill="#ffffff" stroke="#d3e3df"/>
    <rect x="54" y="224" width="132" height="90" rx="20" fill="#e2f6ed" stroke="#a8ddc4"/>
    <text x="76" y="258" font-size="15" font-weight="900" fill="#1f704f">Поддержка</text>
    <text x="76" y="286" font-size="12" font-weight="800" fill="#5a7569">Чаты, клиенты</text>
    <rect x="204" y="224" width="132" height="90" rx="20" fill="#e9f4fb" stroke="#b5d7eb"/>
    <text x="226" y="258" font-size="15" font-weight="900" fill="#1e6d98">Контент</text>
    <text x="226" y="286" font-size="12" font-weight="800" fill="#587487">Уроки, файлы</text>
    <rect x="354" y="224" width="132" height="90" rx="20" fill="#fff2d8" stroke="#eccb8d"/>
    <text x="376" y="258" font-size="15" font-weight="900" fill="#86611c">Финансы</text>
    <text x="376" y="286" font-size="12" font-weight="800" fill="#7c6a4b">Платежи, отчёты</text>

    <rect x="30" y="366" width="480" height="470" rx="26" fill="#ffffff" stroke="#d3e3df"/>
    <text x="54" y="408" font-size="20" font-weight="900">Карточка администратора</text>
    <circle cx="80" cy="462" r="28" fill="#1fa37b"/>
    <text x="70" y="472" font-size="24" font-weight="900" fill="#ffffff">К</text>
    <text x="124" y="452" font-size="19" font-weight="900">Катя</text>
    <text x="124" y="480" font-size="14" font-weight="800" fill="#64776f">@kat_teh · доступ активен</text>
    <rect x="350" y="436" width="116" height="44" rx="16" fill="#ffe6e8" stroke="#efb2ba"/>
    <text x="374" y="464" font-size="14" font-weight="900" fill="#b13e4c">Забрать</text>

    <text x="54" y="536" font-size="14" font-weight="900" fill="#64776f">Роль</text>
    <rect x="54" y="556" width="412" height="54" rx="18" fill="#e2f6ed" stroke="#a8ddc4"/>
    <text x="76" y="590" font-size="16" font-weight="900" fill="#1f704f">Поддержка</text>
    <text x="330" y="590" font-size="14" font-weight="900" fill="#1f704f">Изменить</text>

    <text x="54" y="660" font-size="14" font-weight="900" fill="#64776f">Индивидуальные права</text>
    <g font-size="14" font-weight="850">
      <rect x="54" y="684" width="412" height="44" rx="15" fill="#f7faf9" stroke="#dbe8e5"/>
      <text x="76" y="712">Клиенты</text>
      <rect x="374" y="696" width="58" height="22" rx="11" fill="#38a877"/>
      <circle cx="421" cy="707" r="9" fill="#ffffff"/>
      <rect x="54" y="740" width="412" height="44" rx="15" fill="#f7faf9" stroke="#dbe8e5"/>
      <text x="76" y="768">Рассылки</text>
      <rect x="374" y="752" width="58" height="22" rx="11" fill="#ced9df"/>
      <circle cx="386" cy="763" r="9" fill="#ffffff"/>
      <rect x="54" y="796" width="412" height="44" rx="15" fill="#f7faf9" stroke="#dbe8e5"/>
      <text x="76" y="824">Платежи</text>
      <rect x="374" y="808" width="58" height="22" rx="11" fill="#ced9df"/>
      <circle cx="386" cy="819" r="9" fill="#ffffff"/>
    </g>

    <rect x="54" y="866" width="190" height="50" rx="18" fill="#258f70"/>
    <text x="100" y="897" font-size="16" font-weight="900" fill="#ffffff">Сохранить</text>
    <rect x="260" y="866" width="206" height="50" rx="18" fill="#f3f8f6" stroke="#cbded8"/>
    <text x="322" y="897" font-size="16" font-weight="900" fill="#258f70">Отмена</text>
  </g>
</svg>
